<!DOCTYPE svg PUBLIC "-//W3C//DTD SVG 1.1//EN" "http://www.w3.org/Graphics/SVG/1.1/DTD/svg11.dtd">
<!-- Uploaded to: SVG Repo, www.svgrepo.com, Transformed by: SVG Repo Mixer Tools -->
<svg height="800px" width="800px" version="1.1" id="Layer_1" xmlns="http://www.w3.org/2000/svg" xmlns:xlink="http://www.w3.org/1999/xlink" viewBox="0 0 512 512" xml:space="preserve" fill="#000000">
<g id="SVGRepo_bgCarrier" stroke-width="0"/>
<g id="SVGRepo_tracerCarrier" stroke-linecap="round" stroke-linejoin="round"/>
<g id="SVGRepo_iconCarrier"> <circle style="fill:#423634;" cx="256" cy="256" r="256"/> <g> <path style="fill:#362B29;" d="M512,256c0,141.384-114.616,256-256,256V0C397.384,0,512,114.616,512,256z"/> <circle style="fill:#362B29;" cx="256" cy="256" r="144.607"/> </g> <path style="fill:#423634;" d="M400.61,256c0,79.866-64.745,144.61-144.61,144.61V111.39C335.866,111.39,400.61,176.134,400.61,256z "/> <path style="fill:#C3E825;" d="M309.616,259.67c4.3,24.606,1.825,51.544-7.424,80.813l25.603,8.746l25.603,8.746 c10.593-28.81,25.117-51.632,43.573-68.463l7.477-16.794l-89.709-31.431L309.616,259.67z"/> <g> <path style="fill:#A8DD5E;" d="M327.796,349.23l25.603,8.746c10.593-28.81,25.117-51.632,43.573-68.463l7.477-16.794 l-45.115-15.806L327.796,349.23z"/> <path style="fill:#A8DD5E;" d="M436.866,230.014c-3.955-1.351-7.976-2.023-11.941-2.094c0.606-23.49-13.946-45.656-37.357-53.654 c-23.411-7.997-48.483,0.632-62.377,19.582c-3.179-2.371-6.771-4.299-10.725-5.65c-20.404-6.971-42.595,3.919-49.566,24.323 c-6.971,20.404,3.919,42.595,24.323,49.566c12.125,4.143,24.881,1.977,34.699-4.744c6.495,9.663,16.079,17.363,27.947,21.418 c11.868,4.055,24.16,3.828,35.21,0.158c3.654,11.323,12.419,20.841,24.544,24.983c20.404,6.971,42.595-3.919,49.566-24.323 C468.159,259.176,457.269,236.984,436.866,230.014z"/> </g> <path style="fill:#86C37E;" d="M436.866,230.014c-3.955-1.351-7.976-2.023-11.941-2.094c0.606-23.49-13.946-45.656-37.357-53.654 L351.87,278.761c11.868,4.055,24.16,3.828,35.21,0.158c3.654,11.323,12.419,20.841,24.544,24.983 c20.404,6.971,42.595-3.919,49.566-24.323C468.159,259.176,457.269,236.984,436.866,230.014z"/> <circle style="fill:#F5DC49;" cx="205.913" cy="146.031" r="45.857"/> <path style="fill:#ECAE44;" d="M205.913,100.174c25.326,0,45.857,20.531,45.857,45.857s-20.531,45.857-45.857,45.857 C205.913,165.651,205.913,111.39,205.913,100.174z"/> <g> <circle style="fill:#C3E825;" cx="189.217" cy="325.387" r="16.696"/> <circle style="fill:#C3E825;" cx="230.957" cy="308.691" r="16.696"/> <circle style="fill:#C3E825;" cx="222.609" cy="353.213" r="16.696"/> </g> <path style="fill:#E3744E;" d="M132.125,168.587c-11.017-0.717-20.732,7.342-21.753,18.334c-0.634,6.823-3.562,13.473-8.787,18.698 c-5.226,5.226-11.875,8.153-18.699,8.787c-10.969,1.02-19.042,10.7-18.337,21.693c0.994,15.49,7.633,30.684,19.93,42.236 c24.59,23.099,63.561,22.745,87.752-0.772c25.468-24.759,25.686-65.479,0.653-90.512 C161.537,175.705,146.968,169.553,132.125,168.587z"/> <path style="fill:#E05323;" d="M172.883,187.051c-11.346-11.346-25.914-17.498-40.759-18.464 c-11.017-0.717-20.732,7.342-21.753,18.334c-0.634,6.823-3.562,13.473-8.787,18.698l71.287,71.287 C197.684,252.09,197.699,211.867,172.883,187.051z"/> </g>
</svg>