<?xml version="1.0" encoding="iso-8859-1"?>

<!DOCTYPE svg PUBLIC "-//W3C//DTD SVG 1.1//EN" "http://www.w3.org/Graphics/SVG/1.1/DTD/svg11.dtd">
<!-- Uploaded to: SVG Repo, www.svgrepo.com, Generator: SVG Repo Mixer Tools -->
<svg version="1.1" id="_x34_" xmlns="http://www.w3.org/2000/svg" xmlns:xlink="http://www.w3.org/1999/xlink" 
	 viewBox="0 0 512 512"  xml:space="preserve">
<g>
	<path style="fill:none;" d="M270.717,280.819c3.668-14.098,0.162-29.691-10.862-40.715l-9.008-9.008l-10.945,10.945
		C251.873,254.012,262.103,267.054,270.717,280.819z"/>
	<path style="fill:none;" d="M231.148,241.251c13.765,8.614,26.807,18.844,38.778,30.816l10.945-10.945l-9.008-9.009
		C260.839,241.089,245.246,237.583,231.148,241.251z"/>
	<g>
		<g>
			<path style="fill:#CCCCCC;" d="M177.592,356.258c0,5.624-2.109,11.177-6.397,15.464l-16.097,16.097v0.07l-10.192,10.122
				l-10.685,10.685v0.07l-1.687,1.617c-8.505,8.506-22.424,8.506-30.929,0c-8.506-8.505-8.506-22.423,0-30.928l1.687-1.687
				l10.685-10.685l10.192-10.192l16.097-16.097c8.505-8.505,22.423-8.505,30.929,0C175.484,345.082,177.592,350.634,177.592,356.258
				z"/>
			<g>
				<path style="fill:#362B29;" d="M501.643,62.995c0,0,0,0-0.07-0.07c-3.304-7.381-8.013-14.27-14.129-20.385l-8.997-8.997
					l-9.068-8.998c-6.046-6.046-12.934-10.755-20.315-14.129c-22.564-10.333-49.627-8.014-70.223,6.959
					c-2.953,2.109-5.764,4.498-8.435,7.17l-2.882,2.811c-12.934,12.934-19.752,29.804-20.385,46.815
					c-0.773,18.839,6.045,37.888,20.385,52.228l9.068,8.998l8.997,8.997c14.34,14.34,33.319,21.158,52.158,20.455
					c17.011-0.633,33.881-7.451,46.815-20.455l2.882-2.812c2.671-2.67,5.061-5.483,7.17-8.435v-0.07
					c2.249-3.022,4.218-6.256,5.835-9.56c0.773-1.617,1.546-3.304,2.249-4.991c0.773-1.897,1.476-3.866,2.038-5.764
					c1.055-3.233,1.828-6.607,2.32-9.982c0.211-1.335,0.351-2.67,0.492-4.006c0.07-0.632,0.14-1.266,0.14-1.968
					c0.141-1.617,0.211-3.164,0.211-4.78C507.899,82.115,505.861,72.204,501.643,62.995z M467.903,122.041l-2.812,2.883
					c-11.317,11.246-27.344,14.831-41.684,10.684c-6.748-1.827-13.074-5.412-18.346-10.684l-17.995-17.995
					c-5.272-5.272-8.927-11.669-10.825-18.346c-4.077-14.34-0.492-30.437,10.825-41.684l2.812-2.881
					c5.483-5.413,12.161-9.139,19.12-10.896c14.129-3.796,29.875-0.141,40.911,10.896l9.068,9.067l8.927,8.998
					c2.882,2.882,5.272,6.045,7.1,9.489c1.546,2.671,2.742,5.553,3.585,8.435c2.249,7.451,2.319,15.395,0.281,22.916
					C477.111,109.951,473.385,116.559,467.903,122.041z"/>
			</g>
			<path style="fill:#362B29;" d="M491.732,310.638c-3.022,6.466-6.327,12.794-9.982,18.979
				c-5.483,9.35-11.739,18.347-18.768,26.923c-4.71,5.694-9.701,11.247-15.043,16.589c-2.671,2.741-5.412,5.342-8.154,7.732
				c-13.848,12.512-28.82,22.916-44.706,31.28c-37.537,19.753-79.713,27.837-120.975,24.181c-2.249-0.211-4.428-0.421-6.678-0.773
				c-0.844,0-1.687-0.141-2.46-0.281c-2.039-0.211-4.007-0.492-5.975-0.844c-1.546-0.21-3.023-0.492-4.498-0.773
				c-1.898-0.281-3.796-0.632-5.624-1.124c-0.984-0.07-1.968-0.281-2.882-0.633c-2.32-0.422-4.639-0.984-6.889-1.617
				c-13.778-3.444-27.203-8.294-40.138-14.551c-2.109-0.983-4.288-2.038-6.396-3.163c-0.633-0.281-1.265-0.632-1.828-0.984
				c-2.531-1.336-4.991-2.742-7.521-4.147c-0.703-0.422-1.336-0.773-1.968-1.265c-2.109-1.196-4.217-2.461-6.256-3.866
				c-0.914-0.493-1.828-1.125-2.742-1.828c-2.742-1.757-5.413-3.655-8.084-5.624c-2.952-2.109-5.904-4.358-8.787-6.748
				c-0.07-0.07-0.211-0.141-0.281-0.211v-0.07c-5.553-4.498-11.036-9.419-16.238-14.691h-0.07
				c-5.202-5.202-10.122-10.614-14.621-16.237h-0.07C53.806,271.063,58.656,144.184,138.79,63.98
				C203.741-0.901,299.27-16.436,378.841,17.375c10.403,4.288,20.455,9.56,30.156,15.746c13.848,8.505,26.922,18.838,38.942,30.859
				v0.069c2.742,2.672,5.272,5.342,7.733,8.085c2.109,2.249,4.077,4.568,6.045,6.959c0.984,1.194,1.968,2.39,2.952,3.655
				c3.866,4.85,7.451,9.84,10.825,14.901c1.125,1.687,2.25,3.374,3.304,5.131c0.141,0.07,0.141,0.07,0.07,0.141
				c6.186,9.701,11.387,19.753,15.746,30.156v0.07c1.476,3.374,2.812,6.677,4.007,10.122c0.07,0.07,0.07,0.141,0.07,0.211
				c1.265,3.444,2.46,6.888,3.515,10.403c0.703,2.25,1.406,4.569,1.968,6.889c0.562,1.757,0.984,3.515,1.406,5.272
				c0.773,3.093,1.476,6.116,2.039,9.209c0.773,3.585,1.406,7.1,1.898,10.755c0.422,2.741,0.773,5.483,1.055,8.294
				C515.069,233.667,508.743,274.015,491.732,310.638z"/>
			<g style="opacity:0.2;">
				<path style="fill:#FFFFFF;" d="M245.699,36.973c-1.56-1.56-2.687-3.586-3.143-5.915c-1.219-6.229,2.843-12.269,9.073-13.486
					c30.981-6.062,62.333-5.756,93.185,0.911c6.205,1.341,10.148,7.456,8.807,13.661c-1.34,6.203-7.456,10.148-13.661,8.807
					c-27.784-6.002-56.017-6.278-83.918-0.819C252.142,40.896,248.314,39.588,245.699,36.973z"/>
			</g>
			<path style="opacity:0.2;fill:#362B29;" d="M166.767,376.151l-11.669,11.668v0.07l-10.192,10.122
				c-5.623-4.568-11.036-9.488-16.238-14.69c-5.272-5.203-10.122-10.685-14.691-16.238l10.122-10.192h0.07l11.599-11.67
				c0.211-0.14,0.351-0.351,0.563-0.492c8.505-8.013,22.072-7.802,30.437,0.492C175.273,353.728,175.273,367.645,166.767,376.151z"
				/>
			<circle style="fill:#606060;stroke:#7F7F7F;stroke-width:3;stroke-miterlimit:10;" cx="294.608" cy="217.36" r="152.514"/>
			<path style="fill:#362B29;" d="M136.4,415.445c-0.14-0.843-0.281-1.688-0.492-2.53c-0.422-1.476-0.984-2.812-1.687-4.148v-0.07
				c-0.844-1.476-1.827-2.811-3.093-4.077l-11.879-11.88l-11.95-11.949c-1.195-1.194-2.531-2.249-4.007-3.022
				c-6.959-3.937-16.027-2.953-22.002,3.022L1.368,460.784c-0.351,0.352-0.633,0.773-0.843,1.195
				c-0.914,1.687-0.633,3.866,0.843,5.272l43.371,43.37c1.476,1.406,3.585,1.687,5.272,0.844c0.422-0.141,0.844-0.422,1.195-0.844
				l79.923-79.993c0.914-0.915,1.687-1.828,2.39-2.882c2.038-3.023,3.023-6.608,3.023-10.123
				C136.541,416.921,136.471,416.148,136.4,415.445z M47.199,479.412c-4.007,4.078-10.614,4.078-14.621,0h-0.07
				c-4.007-4.007-4.007-10.614,0-14.621l9.771-9.77c4.007-4.007,10.614-4.007,14.621,0c4.007,4.077,4.007,10.614,0,14.691
				L47.199,479.412z"/>
			<path style="fill:#F4F4F5;" d="M373.64,215.921c21.633,21.633,2.508,64.587-25.082,77.128s-63.96,33.861-95.312-12.541
				s-51.419-95.939-32.607-119.767c18.812-23.828,48.91-16.93,84.025-19.439c35.115-2.508,50.164-17.557,65.214,17.558
				C384.927,193.974,373.64,215.921,373.64,215.921z"/>
			<path style="opacity:0.2;fill:#C4C4C4;" d="M348.564,291.97c-18.205,8.257-40.214,20.351-62.093,14.304
				c17.636-0.049,34.866-9.249,49.625-15.946c27.584-12.532,46.716-55.493,25.081-77.128c0,0,11.281-21.944-3.771-57.054
				c-5.299-12.353-10.582-18.481-16.759-21.147c12.191-0.91,20.725,2.877,29.242,22.773c15.036,35.126,3.755,57.07,3.755,57.07
				C395.28,236.477,376.148,279.438,348.564,291.97z"/>
			<circle style="fill:#D9CB43;" cx="303.58" cy="206.763" r="34.028"/>
			<circle style="fill:#E7DB8B;" cx="305.543" cy="193.348" r="12.957"/>
		</g>
		<path style="opacity:0.1;fill:#040000;" d="M494.619,133.061c19.81-27.354,17.479-65.876-7.15-90.505l-9.008-9.008l-19.506,19.506
			l9.009,9.008c11.024,11.024,14.53,26.616,10.862,40.715c-8.614-13.765-18.844-26.807-30.815-38.778L56.955,455.053
			c4.023,4.023,4.023,10.606,0,14.629l-9.753,9.753c-4.023,4.023-10.606,4.023-14.629,0l-9.5,9.5l21.673,21.672
			c1.788,1.788,4.713,1.788,6.502,0l79.953-79.952c5.914-5.914,6.858-14.907,2.992-21.899l10.739-10.74l10.159-10.159
			c85.87,70.347,212.769,65.454,292.92-14.698C512.928,308.244,528.427,212.676,494.619,133.061z"/>
	</g>
</g>
</svg>