<?xml version="1.0" encoding="iso-8859-1"?>
<!-- Uploaded to: SVG Repo, www.svgrepo.com, Generator: SVG Repo Mixer Tools -->
<svg version="1.1" id="Layer_1" xmlns="http://www.w3.org/2000/svg" xmlns:xlink="http://www.w3.org/1999/xlink" 
	 viewBox="0 0 512 512" xml:space="preserve">
<path style="fill:#FFFFFF;" d="M256,434.28c-98.464-0.008-178.28-79.824-178.272-178.288S157.552,77.712,256.016,77.72
	c98.456,0.008,178.272,79.824,178.272,178.28C434.176,354.416,354.416,434.176,256,434.28z"/>
<path style="fill:#999999;" d="M256,85.72c94.04,0,170.28,76.24,170.28,170.28S350.04,426.28,256,426.28S85.72,350.04,85.72,256
	C85.824,162,162,85.824,256,85.72 M256,69.72c-102.88,0-186.28,83.4-186.28,186.28S153.12,442.28,256,442.28
	S442.28,358.88,442.28,256l0,0C442.28,153.12,358.88,69.72,256,69.72z"/>
<g>
	<rect x="252" style="fill:#222020;" width="8" height="40"/>
	<rect x="252" y="472" style="fill:#222020;" width="8" height="40"/>
	<rect y="252" style="fill:#222020;" width="40" height="8"/>
	<rect x="472" y="252" style="fill:#222020;" width="40" height="8"/>
</g>
<g>
	
		<rect x="85.114" y="69.128" transform="matrix(0.7071 -0.7072 0.7072 0.7071 -36.9227 89.1275)" style="fill:#E81241;" width="8" height="40.002"/>
	
		<rect x="418.843" y="402.869" transform="matrix(0.707 -0.7072 0.7072 0.707 -175.1653 422.9351)" style="fill:#E81241;" width="8" height="40"/>
	
		<rect x="69.159" y="418.884" transform="matrix(0.7071 -0.7071 0.7071 0.7071 -272.91 186.9049)" style="fill:#E81241;" width="40" height="8"/>
	
		<rect x="402.919" y="85.124" transform="matrix(0.7071 -0.7071 0.7071 0.7071 60.8499 325.1528)" style="fill:#E81241;" width="40" height="8"/>
</g>
<path d="M256.152,176.12c-56.8-1.008-109.4,29.792-136.312,79.816c26.736,50.056,79.256,80.928,136,79.944
	c56.8,1.016,109.408-29.784,136.32-79.816C365.424,206,312.896,175.128,256.152,176.12z"/>
<circle style="fill:#E21B1B;" cx="256" cy="256" r="50.696"/>
<circle style="fill:#FFFFFF;" cx="256" cy="256" r="34.32"/>
<circle cx="256" cy="256" r="17.04"/>
</svg>